<svg width="276" height="450" viewBox="0 0 276 450" fill="none" xmlns="http://www.w3.org/2000/svg">
<rect x="0.5" width="275" height="60" rx="8" fill="#F9FAFB"/>
<path d="M124.909 25.25H126.75C127.614 25.25 128.381 25.4432 129.051 25.8295C129.722 26.2159 130.248 26.7538 130.631 27.4432C131.013 28.1326 131.205 28.9318 131.205 29.8409C131.205 30.75 131.013 31.5511 130.631 32.2443C130.248 32.9375 129.722 33.4792 129.051 33.8693C128.381 34.2595 127.614 34.4545 126.75 34.4545H124.909C124.045 34.4545 123.278 34.2614 122.608 33.875C121.938 33.4886 121.411 32.9508 121.028 32.2614C120.646 31.572 120.455 30.7727 120.455 29.8636C120.455 28.9545 120.646 28.1534 121.028 27.4602C121.411 26.767 121.938 26.2254 122.608 25.8352C123.278 25.4451 124.045 25.25 124.909 25.25ZM124.909 26.5C124.25 26.5 123.693 26.6383 123.239 26.9148C122.788 27.1913 122.445 27.5814 122.21 28.0852C121.979 28.589 121.864 29.1818 121.864 29.8636C121.864 30.5379 121.979 31.125 122.21 31.625C122.445 32.125 122.788 32.5133 123.239 32.7898C123.693 33.0663 124.25 33.2045 124.909 33.2045H126.75C127.409 33.2045 127.964 33.0663 128.415 32.7898C128.869 32.5133 129.212 32.1231 129.443 31.6193C129.678 31.1155 129.795 30.5227 129.795 29.8409C129.795 29.1667 129.678 28.5795 129.443 28.0795C129.212 27.5795 128.869 27.1913 128.415 26.9148C127.964 26.6383 127.409 26.5 126.75 26.5H124.909ZM126.545 23.6591V35.9773H125.136V23.6591H126.545ZM133.565 23.8636H134.952V33.0227H135.065L141.429 23.8636H142.793V35.5H141.384V26.3636H141.27L134.929 35.5H133.565V23.8636ZM155.43 29.6818C155.43 30.9091 155.209 31.9697 154.766 32.8636C154.322 33.7576 153.714 34.447 152.942 34.9318C152.169 35.4167 151.286 35.6591 150.294 35.6591C149.302 35.6591 148.419 35.4167 147.646 34.9318C146.874 34.447 146.266 33.7576 145.822 32.8636C145.379 31.9697 145.158 30.9091 145.158 29.6818C145.158 28.4545 145.379 27.3939 145.822 26.5C146.266 25.6061 146.874 24.9167 147.646 24.4318C148.419 23.947 149.302 23.7045 150.294 23.7045C151.286 23.7045 152.169 23.947 152.942 24.4318C153.714 24.9167 154.322 25.6061 154.766 26.5C155.209 27.3939 155.43 28.4545 155.43 29.6818ZM154.067 29.6818C154.067 28.6742 153.898 27.8239 153.561 27.1307C153.228 26.4375 152.775 25.9129 152.203 25.5568C151.635 25.2008 150.999 25.0227 150.294 25.0227C149.589 25.0227 148.951 25.2008 148.379 25.5568C147.811 25.9129 147.358 26.4375 147.021 27.1307C146.688 27.8239 146.521 28.6742 146.521 29.6818C146.521 30.6894 146.688 31.5398 147.021 32.233C147.358 32.9261 147.811 33.4508 148.379 33.8068C148.951 34.1629 149.589 34.3409 150.294 34.3409C150.999 34.3409 151.635 34.1629 152.203 33.8068C152.775 33.4508 153.228 32.9261 153.561 32.233C153.898 31.5398 154.067 30.6894 154.067 29.6818Z" fill="black"/>
<rect x="0.5" y="65" width="275" height="60" rx="8" fill="#00A473" fill-opacity="0.1"/>
<path d="M67.75 100.5L63.75 95.1591H62.3182V100.5H60.9091V88.8636H62.3182V93.9091H62.9318L67.5909 88.8636H69.2727L64.5682 93.9773L69.4318 100.5H67.75ZM73.9759 100.682C73.188 100.682 72.4967 100.494 71.902 100.119C71.3111 99.7443 70.849 99.2197 70.5156 98.5455C70.1861 97.8712 70.0213 97.0833 70.0213 96.1818C70.0213 95.2727 70.1861 94.4792 70.5156 93.8011C70.849 93.1231 71.3111 92.5966 71.902 92.2216C72.4967 91.8466 73.188 91.6591 73.9759 91.6591C74.7637 91.6591 75.4531 91.8466 76.044 92.2216C76.6387 92.5966 77.1009 93.1231 77.4304 93.8011C77.7637 94.4792 77.9304 95.2727 77.9304 96.1818C77.9304 97.0833 77.7637 97.8712 77.4304 98.5455C77.1009 99.2197 76.6387 99.7443 76.044 100.119C75.4531 100.494 74.7637 100.682 73.9759 100.682ZM73.9759 99.4773C74.5743 99.4773 75.0668 99.3239 75.4531 99.017C75.8395 98.7102 76.1255 98.3068 76.3111 97.8068C76.4967 97.3068 76.5895 96.7652 76.5895 96.1818C76.5895 95.5985 76.4967 95.0549 76.3111 94.5511C76.1255 94.0473 75.8395 93.6402 75.4531 93.3295C75.0668 93.0189 74.5743 92.8636 73.9759 92.8636C73.3774 92.8636 72.8849 93.0189 72.4986 93.3295C72.1122 93.6402 71.8262 94.0473 71.6406 94.5511C71.455 95.0549 71.3622 95.5985 71.3622 96.1818C71.3622 96.7652 71.455 97.3068 71.6406 97.8068C71.8262 98.3068 72.1122 98.7102 72.4986 99.017C72.8849 99.3239 73.3774 99.4773 73.9759 99.4773ZM85.8182 95.5227V96.7727H81V95.5227H85.8182ZM81.3182 91.7727V100.5H79.9773V91.7727H81.3182ZM86.8409 91.7727V100.5H85.5V91.7727H86.8409ZM88.1023 93.0227V91.7727H95.1932V93.0227H92.3295V100.5H90.9886V93.0227H88.1023ZM99.2642 100.705C98.7112 100.705 98.2093 100.6 97.7585 100.392C97.3078 100.18 96.9498 99.875 96.6847 99.4773C96.4195 99.0758 96.2869 98.5909 96.2869 98.0227C96.2869 97.5227 96.3854 97.1174 96.5824 96.8068C96.7794 96.4924 97.0426 96.2462 97.3722 96.0682C97.7017 95.8902 98.0653 95.7576 98.4631 95.6705C98.8646 95.5795 99.268 95.5076 99.6733 95.4545C100.204 95.3864 100.634 95.3352 100.963 95.3011C101.296 95.2633 101.539 95.2008 101.69 95.1136C101.846 95.0265 101.923 94.875 101.923 94.6591V94.6136C101.923 94.053 101.77 93.6174 101.463 93.3068C101.16 92.9962 100.7 92.8409 100.082 92.8409C99.4422 92.8409 98.9403 92.9811 98.5767 93.2614C98.2131 93.5417 97.9574 93.8409 97.8097 94.1591L96.5369 93.7045C96.7642 93.1742 97.0672 92.7614 97.446 92.4659C97.8286 92.1667 98.2453 91.9583 98.696 91.8409C99.1506 91.7197 99.5975 91.6591 100.037 91.6591C100.317 91.6591 100.639 91.6932 101.003 91.7614C101.37 91.8258 101.724 91.9602 102.065 92.1648C102.41 92.3693 102.696 92.678 102.923 93.0909C103.151 93.5038 103.264 94.0568 103.264 94.75V100.5H101.923V99.3182H101.855C101.764 99.5076 101.613 99.7102 101.401 99.9261C101.188 100.142 100.906 100.326 100.554 100.477C100.202 100.629 99.7718 100.705 99.2642 100.705ZM99.4688 99.5C99.9991 99.5 100.446 99.3958 100.81 99.1875C101.177 98.9792 101.454 98.7102 101.639 98.3807C101.829 98.0511 101.923 97.7045 101.923 97.3409V96.1136C101.866 96.1818 101.741 96.2443 101.548 96.3011C101.359 96.3542 101.139 96.4015 100.889 96.4432C100.643 96.4811 100.402 96.5152 100.168 96.5455C99.9366 96.572 99.7491 96.5947 99.6051 96.6136C99.2566 96.6591 98.9309 96.733 98.6278 96.8352C98.3286 96.9337 98.0862 97.0833 97.9006 97.2841C97.7188 97.4811 97.6278 97.75 97.6278 98.0909C97.6278 98.5568 97.8002 98.9091 98.1449 99.1477C98.4934 99.3826 98.9347 99.5 99.4688 99.5ZM105.712 100.5V91.7727H107.053V95.5682H107.939L111.075 91.7727H112.803L109.28 95.9773L112.848 100.5H111.121L108.257 96.8182H107.053V100.5H105.712ZM113.805 93.0227V91.7727H120.896V93.0227H118.033V100.5H116.692V93.0227H113.805ZM128.693 95.5227V96.7727H123.875V95.5227H128.693ZM124.193 91.7727V100.5H122.852V91.7727H124.193ZM129.716 91.7727V100.5H128.375V91.7727H129.716ZM133.324 94.9318H135.824C136.847 94.9318 137.629 95.1913 138.17 95.7102C138.712 96.2292 138.983 96.8864 138.983 97.6818C138.983 98.2045 138.862 98.6799 138.619 99.108C138.377 99.5322 138.021 99.8712 137.551 100.125C137.081 100.375 136.506 100.5 135.824 100.5H132.165V91.7727H133.506V99.25H135.824C136.354 99.25 136.79 99.1098 137.131 98.8295C137.472 98.5492 137.642 98.1894 137.642 97.75C137.642 97.2879 137.472 96.911 137.131 96.6193C136.79 96.3277 136.354 96.1818 135.824 96.1818H133.324V94.9318ZM140.369 100.5V91.7727H141.71V100.5H140.369ZM147.824 100.682C146.983 100.682 146.258 100.496 145.648 100.125C145.042 99.75 144.574 99.2273 144.244 98.5568C143.919 97.8826 143.756 97.0985 143.756 96.2045C143.756 95.3106 143.919 94.5227 144.244 93.8409C144.574 93.1553 145.032 92.6212 145.619 92.2386C146.21 91.8523 146.9 91.6591 147.688 91.6591C148.142 91.6591 148.591 91.7348 149.034 91.8864C149.477 92.0379 149.881 92.2841 150.244 92.625C150.608 92.9621 150.898 93.4091 151.114 93.9659C151.33 94.5227 151.438 95.2083 151.438 96.0227V96.5909H144.71V95.4318H150.074C150.074 94.9394 149.975 94.5 149.778 94.1136C149.585 93.7273 149.309 93.4223 148.949 93.1989C148.593 92.9754 148.172 92.8636 147.688 92.8636C147.153 92.8636 146.691 92.9962 146.301 93.2614C145.915 93.5227 145.617 93.8636 145.409 94.2841C145.201 94.7045 145.097 95.1553 145.097 95.6364V96.4091C145.097 97.0682 145.21 97.6269 145.438 98.0852C145.669 98.5398 145.989 98.8864 146.398 99.125C146.807 99.3598 147.282 99.4773 147.824 99.4773C148.176 99.4773 148.494 99.428 148.778 99.3295C149.066 99.2273 149.314 99.0758 149.523 98.875C149.731 98.6705 149.892 98.4167 150.006 98.1136L151.301 98.4773C151.165 98.9167 150.936 99.303 150.614 99.6364C150.292 99.9659 149.894 100.223 149.42 100.409C148.947 100.591 148.415 100.682 147.824 100.682ZM157.045 103V99.25H157.773C157.951 99.0644 158.104 98.8636 158.233 98.6477C158.362 98.4318 158.473 98.1761 158.568 97.8807C158.667 97.5814 158.75 97.2178 158.818 96.7898C158.886 96.358 158.947 95.8371 159 95.2273L159.295 91.7727H164.841V99.25H166.182V103H164.841V100.5H158.386V103H157.045ZM159.295 99.25H163.5V93.0227H160.545L160.318 95.2273C160.223 96.1402 160.106 96.9375 159.966 97.6193C159.826 98.3011 159.602 98.8447 159.295 99.25ZM170.53 100.705C169.977 100.705 169.475 100.6 169.024 100.392C168.573 100.18 168.215 99.875 167.95 99.4773C167.685 99.0758 167.553 98.5909 167.553 98.0227C167.553 97.5227 167.651 97.1174 167.848 96.8068C168.045 96.4924 168.308 96.2462 168.638 96.0682C168.967 95.8902 169.331 95.7576 169.729 95.6705C170.13 95.5795 170.534 95.5076 170.939 95.4545C171.469 95.3864 171.899 95.3352 172.229 95.3011C172.562 95.2633 172.804 95.2008 172.956 95.1136C173.111 95.0265 173.189 94.875 173.189 94.6591V94.6136C173.189 94.053 173.036 93.6174 172.729 93.3068C172.426 92.9962 171.965 92.8409 171.348 92.8409C170.708 92.8409 170.206 92.9811 169.842 93.2614C169.479 93.5417 169.223 93.8409 169.075 94.1591L167.803 93.7045C168.03 93.1742 168.333 92.7614 168.712 92.4659C169.094 92.1667 169.511 91.9583 169.962 91.8409C170.416 91.7197 170.863 91.6591 171.303 91.6591C171.583 91.6591 171.905 91.6932 172.268 91.7614C172.636 91.8258 172.99 91.9602 173.331 92.1648C173.676 92.3693 173.962 92.678 174.189 93.0909C174.416 93.5038 174.53 94.0568 174.53 94.75V100.5H173.189V99.3182H173.121C173.03 99.5076 172.878 99.7102 172.666 99.9261C172.454 100.142 172.172 100.326 171.82 100.477C171.467 100.629 171.037 100.705 170.53 100.705ZM170.734 99.5C171.265 99.5 171.712 99.3958 172.075 99.1875C172.443 98.9792 172.719 98.7102 172.905 98.3807C173.094 98.0511 173.189 97.7045 173.189 97.3409V96.1136C173.132 96.1818 173.007 96.2443 172.814 96.3011C172.625 96.3542 172.405 96.4015 172.155 96.4432C171.909 96.4811 171.668 96.5152 171.433 96.5455C171.202 96.572 171.015 96.5947 170.871 96.6136C170.522 96.6591 170.196 96.733 169.893 96.8352C169.594 96.9337 169.352 97.0833 169.166 97.2841C168.984 97.4811 168.893 97.75 168.893 98.0909C168.893 98.5568 169.066 98.9091 169.411 99.1477C169.759 99.3826 170.2 99.5 170.734 99.5ZM182.818 95.5227V96.7727H178V95.5227H182.818ZM178.318 91.7727V100.5H176.977V91.7727H178.318ZM183.841 91.7727V100.5H182.5V91.7727H183.841ZM192.131 95.5227V96.7727H187.312V95.5227H192.131ZM187.631 91.7727V100.5H186.29V91.7727H187.631ZM193.153 91.7727V100.5H191.812V91.7727H193.153ZM196.761 94.9318H199.261C200.284 94.9318 201.066 95.1913 201.608 95.7102C202.15 96.2292 202.42 96.8864 202.42 97.6818C202.42 98.2045 202.299 98.6799 202.057 99.108C201.814 99.5322 201.458 99.8712 200.989 100.125C200.519 100.375 199.943 100.5 199.261 100.5H195.602V91.7727H196.943V99.25H199.261C199.792 99.25 200.227 99.1098 200.568 98.8295C200.909 98.5492 201.08 98.1894 201.08 97.75C201.08 97.2879 200.909 96.911 200.568 96.6193C200.227 96.3277 199.792 96.1818 199.261 96.1818H196.761V94.9318ZM203.807 100.5V91.7727H205.148V100.5H203.807ZM211.261 100.682C210.42 100.682 209.695 100.496 209.085 100.125C208.479 99.75 208.011 99.2273 207.682 98.5568C207.356 97.8826 207.193 97.0985 207.193 96.2045C207.193 95.3106 207.356 94.5227 207.682 93.8409C208.011 93.1553 208.47 92.6212 209.057 92.2386C209.648 91.8523 210.337 91.6591 211.125 91.6591C211.58 91.6591 212.028 91.7348 212.472 91.8864C212.915 92.0379 213.318 92.2841 213.682 92.625C214.045 92.9621 214.335 93.4091 214.551 93.9659C214.767 94.5227 214.875 95.2083 214.875 96.0227V96.5909H208.148V95.4318H213.511C213.511 94.9394 213.413 94.5 213.216 94.1136C213.023 93.7273 212.746 93.4223 212.386 93.1989C212.03 92.9754 211.61 92.8636 211.125 92.8636C210.591 92.8636 210.129 92.9962 209.739 93.2614C209.352 93.5227 209.055 93.8636 208.847 94.2841C208.638 94.7045 208.534 95.1553 208.534 95.6364V96.4091C208.534 97.0682 208.648 97.6269 208.875 98.0852C209.106 98.5398 209.426 98.8864 209.835 99.125C210.244 99.3598 210.72 99.4773 211.261 99.4773C211.614 99.4773 211.932 99.428 212.216 99.3295C212.504 99.2273 212.752 99.0758 212.96 98.875C213.169 98.6705 213.33 98.4167 213.443 98.1136L214.739 98.4773C214.602 98.9167 214.373 99.303 214.051 99.6364C213.729 99.9659 213.331 100.223 212.858 100.409C212.384 100.591 211.852 100.682 211.261 100.682Z" fill="black"/>
<rect x="0.5" y="130" width="275" height="60" rx="8" fill="#F9FAFB"/>
<path d="M54.9091 165.5V153.864H58.8409C59.7538 153.864 60.5 154.028 61.0795 154.358C61.6629 154.684 62.0947 155.125 62.375 155.682C62.6553 156.239 62.7955 156.86 62.7955 157.545C62.7955 158.231 62.6553 158.854 62.375 159.415C62.0985 159.975 61.6705 160.422 61.0909 160.756C60.5114 161.085 59.7689 161.25 58.8636 161.25H56.0455V160H58.8182C59.4432 160 59.9451 159.892 60.3239 159.676C60.7027 159.46 60.9773 159.169 61.1477 158.801C61.322 158.43 61.4091 158.011 61.4091 157.545C61.4091 157.08 61.322 156.663 61.1477 156.295C60.9773 155.928 60.7008 155.64 60.3182 155.432C59.9356 155.22 59.428 155.114 58.7955 155.114H56.3182V165.5H54.9091ZM68.4489 165.682C67.608 165.682 66.8826 165.496 66.2727 165.125C65.6667 164.75 65.1989 164.227 64.8693 163.557C64.5436 162.883 64.3807 162.098 64.3807 161.205C64.3807 160.311 64.5436 159.523 64.8693 158.841C65.1989 158.155 65.6572 157.621 66.2443 157.239C66.8352 156.852 67.5246 156.659 68.3125 156.659C68.767 156.659 69.2159 156.735 69.6591 156.886C70.1023 157.038 70.5057 157.284 70.8693 157.625C71.233 157.962 71.5227 158.409 71.7386 158.966C71.9545 159.523 72.0625 160.208 72.0625 161.023V161.591H65.3352V160.432H70.6989C70.6989 159.939 70.6004 159.5 70.4034 159.114C70.2102 158.727 69.9337 158.422 69.5739 158.199C69.2178 157.975 68.7973 157.864 68.3125 157.864C67.7784 157.864 67.3163 157.996 66.9261 158.261C66.5398 158.523 66.2424 158.864 66.0341 159.284C65.8258 159.705 65.7216 160.155 65.7216 160.636V161.409C65.7216 162.068 65.8352 162.627 66.0625 163.085C66.2936 163.54 66.6136 163.886 67.0227 164.125C67.4318 164.36 67.9072 164.477 68.4489 164.477C68.8011 164.477 69.1193 164.428 69.4034 164.33C69.6913 164.227 69.9394 164.076 70.1477 163.875C70.3561 163.67 70.517 163.417 70.6307 163.114L71.9261 163.477C71.7898 163.917 71.5606 164.303 71.2386 164.636C70.9167 164.966 70.5189 165.223 70.0455 165.409C69.572 165.591 69.0398 165.682 68.4489 165.682ZM73.1705 168V164.25H73.8977C74.0758 164.064 74.2292 163.864 74.358 163.648C74.4867 163.432 74.5985 163.176 74.6932 162.881C74.7917 162.581 74.875 162.218 74.9432 161.79C75.0114 161.358 75.072 160.837 75.125 160.227L75.4205 156.773H80.9659V164.25H82.3068V168H80.9659V165.5H74.5114V168H73.1705ZM75.4205 164.25H79.625V158.023H76.6705L76.4432 160.227C76.3485 161.14 76.2311 161.937 76.0909 162.619C75.9508 163.301 75.7273 163.845 75.4205 164.25ZM86.6548 165.705C86.1018 165.705 85.5999 165.6 85.1491 165.392C84.6984 165.18 84.3404 164.875 84.0753 164.477C83.8101 164.076 83.6776 163.591 83.6776 163.023C83.6776 162.523 83.776 162.117 83.973 161.807C84.17 161.492 84.4332 161.246 84.7628 161.068C85.0923 160.89 85.456 160.758 85.8537 160.67C86.2552 160.58 86.6586 160.508 87.0639 160.455C87.5942 160.386 88.0241 160.335 88.3537 160.301C88.687 160.263 88.9295 160.201 89.081 160.114C89.2363 160.027 89.3139 159.875 89.3139 159.659V159.614C89.3139 159.053 89.1605 158.617 88.8537 158.307C88.5507 157.996 88.0904 157.841 87.473 157.841C86.8329 157.841 86.331 157.981 85.9673 158.261C85.6037 158.542 85.348 158.841 85.2003 159.159L83.9276 158.705C84.1548 158.174 84.4579 157.761 84.8366 157.466C85.2192 157.167 85.6359 156.958 86.0866 156.841C86.5412 156.72 86.9882 156.659 87.4276 156.659C87.7079 156.659 88.0298 156.693 88.3935 156.761C88.7609 156.826 89.1151 156.96 89.456 157.165C89.8007 157.369 90.0866 157.678 90.3139 158.091C90.5412 158.504 90.6548 159.057 90.6548 159.75V165.5H89.3139V164.318H89.2457C89.1548 164.508 89.0033 164.71 88.7912 164.926C88.5791 165.142 88.2969 165.326 87.9446 165.477C87.5923 165.629 87.1624 165.705 86.6548 165.705ZM86.8594 164.5C87.3897 164.5 87.8366 164.396 88.2003 164.188C88.5677 163.979 88.8442 163.71 89.0298 163.381C89.2192 163.051 89.3139 162.705 89.3139 162.341V161.114C89.2571 161.182 89.1321 161.244 88.9389 161.301C88.7495 161.354 88.5298 161.402 88.2798 161.443C88.0336 161.481 87.7931 161.515 87.5582 161.545C87.3272 161.572 87.1397 161.595 86.9957 161.614C86.6473 161.659 86.3215 161.733 86.0185 161.835C85.7192 161.934 85.4768 162.083 85.2912 162.284C85.1094 162.481 85.0185 162.75 85.0185 163.091C85.0185 163.557 85.1908 163.909 85.5355 164.148C85.884 164.383 86.3253 164.5 86.8594 164.5ZM93.1023 165.5V156.773H94.4432V160.568H95.3295L98.4659 156.773H100.193L96.6705 160.977L100.239 165.5H98.5114L95.6477 161.818H94.4432V165.5H93.1023ZM101.196 158.023V156.773H108.287V158.023H105.423V165.5H104.082V158.023H101.196ZM111.584 163.523L115.788 156.773H117.334V165.5H115.993V158.75L111.811 165.5H110.243V156.773H111.584V163.523ZM119.79 168.773V156.773H121.085V158.159H121.244C121.343 158.008 121.479 157.814 121.653 157.58C121.831 157.341 122.085 157.129 122.415 156.943C122.748 156.754 123.199 156.659 123.767 156.659C124.502 156.659 125.15 156.843 125.71 157.21C126.271 157.578 126.708 158.098 127.023 158.773C127.337 159.447 127.494 160.242 127.494 161.159C127.494 162.083 127.337 162.884 127.023 163.562C126.708 164.237 126.273 164.759 125.716 165.131C125.159 165.498 124.517 165.682 123.79 165.682C123.229 165.682 122.78 165.589 122.443 165.403C122.106 165.214 121.847 165 121.665 164.761C121.483 164.519 121.343 164.318 121.244 164.159H121.131V168.773H119.79ZM121.108 161.136C121.108 161.795 121.205 162.377 121.398 162.881C121.591 163.381 121.873 163.773 122.244 164.057C122.616 164.337 123.07 164.477 123.608 164.477C124.169 164.477 124.636 164.33 125.011 164.034C125.39 163.735 125.674 163.333 125.864 162.83C126.057 162.322 126.153 161.758 126.153 161.136C126.153 160.523 126.059 159.97 125.869 159.477C125.684 158.981 125.402 158.589 125.023 158.301C124.648 158.009 124.176 157.864 123.608 157.864C123.063 157.864 122.604 158.002 122.233 158.278C121.862 158.551 121.581 158.934 121.392 159.426C121.203 159.915 121.108 160.485 121.108 161.136ZM133.085 165.682C132.297 165.682 131.606 165.494 131.011 165.119C130.42 164.744 129.958 164.22 129.625 163.545C129.295 162.871 129.131 162.083 129.131 161.182C129.131 160.273 129.295 159.479 129.625 158.801C129.958 158.123 130.42 157.597 131.011 157.222C131.606 156.847 132.297 156.659 133.085 156.659C133.873 156.659 134.563 156.847 135.153 157.222C135.748 157.597 136.21 158.123 136.54 158.801C136.873 159.479 137.04 160.273 137.04 161.182C137.04 162.083 136.873 162.871 136.54 163.545C136.21 164.22 135.748 164.744 135.153 165.119C134.563 165.494 133.873 165.682 133.085 165.682ZM133.085 164.477C133.684 164.477 134.176 164.324 134.562 164.017C134.949 163.71 135.235 163.307 135.42 162.807C135.606 162.307 135.699 161.765 135.699 161.182C135.699 160.598 135.606 160.055 135.42 159.551C135.235 159.047 134.949 158.64 134.562 158.33C134.176 158.019 133.684 157.864 133.085 157.864C132.487 157.864 131.994 158.019 131.608 158.33C131.222 158.64 130.936 159.047 130.75 159.551C130.564 160.055 130.472 160.598 130.472 161.182C130.472 161.765 130.564 162.307 130.75 162.807C130.936 163.307 131.222 163.71 131.608 164.017C131.994 164.324 132.487 164.477 133.085 164.477ZM139.087 165.5V156.773H142.655C143.594 156.773 144.34 156.985 144.893 157.409C145.446 157.833 145.723 158.394 145.723 159.091C145.723 159.621 145.566 160.032 145.251 160.324C144.937 160.612 144.534 160.807 144.041 160.909C144.363 160.955 144.676 161.068 144.979 161.25C145.286 161.432 145.539 161.682 145.74 162C145.941 162.314 146.041 162.701 146.041 163.159C146.041 163.606 145.928 164.006 145.7 164.358C145.473 164.71 145.147 164.989 144.723 165.193C144.299 165.398 143.791 165.5 143.2 165.5H139.087ZM140.359 164.273H143.2C143.662 164.273 144.024 164.163 144.286 163.943C144.547 163.723 144.678 163.424 144.678 163.045C144.678 162.595 144.547 162.241 144.286 161.983C144.024 161.722 143.662 161.591 143.2 161.591H140.359V164.273ZM140.359 160.432H142.655C143.015 160.432 143.323 160.383 143.581 160.284C143.839 160.182 144.036 160.038 144.172 159.852C144.312 159.663 144.382 159.439 144.382 159.182C144.382 158.814 144.229 158.527 143.922 158.318C143.615 158.106 143.193 158 142.655 158H140.359V160.432ZM150.639 165.705C150.086 165.705 149.584 165.6 149.134 165.392C148.683 165.18 148.325 164.875 148.06 164.477C147.795 164.076 147.662 163.591 147.662 163.023C147.662 162.523 147.76 162.117 147.957 161.807C148.154 161.492 148.418 161.246 148.747 161.068C149.077 160.89 149.44 160.758 149.838 160.67C150.24 160.58 150.643 160.508 151.048 160.455C151.579 160.386 152.009 160.335 152.338 160.301C152.671 160.263 152.914 160.201 153.065 160.114C153.221 160.027 153.298 159.875 153.298 159.659V159.614C153.298 159.053 153.145 158.617 152.838 158.307C152.535 157.996 152.075 157.841 151.457 157.841C150.817 157.841 150.315 157.981 149.952 158.261C149.588 158.542 149.332 158.841 149.185 159.159L147.912 158.705C148.139 158.174 148.442 157.761 148.821 157.466C149.204 157.167 149.62 156.958 150.071 156.841C150.526 156.72 150.973 156.659 151.412 156.659C151.692 156.659 152.014 156.693 152.378 156.761C152.745 156.826 153.099 156.96 153.44 157.165C153.785 157.369 154.071 157.678 154.298 158.091C154.526 158.504 154.639 159.057 154.639 159.75V165.5H153.298V164.318H153.23C153.139 164.508 152.988 164.71 152.776 164.926C152.563 165.142 152.281 165.326 151.929 165.477C151.577 165.629 151.147 165.705 150.639 165.705ZM150.844 164.5C151.374 164.5 151.821 164.396 152.185 164.188C152.552 163.979 152.829 163.71 153.014 163.381C153.204 163.051 153.298 162.705 153.298 162.341V161.114C153.241 161.182 153.116 161.244 152.923 161.301C152.734 161.354 152.514 161.402 152.264 161.443C152.018 161.481 151.777 161.515 151.543 161.545C151.312 161.572 151.124 161.595 150.98 161.614C150.632 161.659 150.306 161.733 150.003 161.835C149.704 161.934 149.461 162.083 149.276 162.284C149.094 162.481 149.003 162.75 149.003 163.091C149.003 163.557 149.175 163.909 149.52 164.148C149.868 164.383 150.31 164.5 150.844 164.5ZM155.899 158.023V156.773H162.99V158.023H160.126V165.5H158.786V158.023H155.899ZM166.105 159.932H168.605C169.628 159.932 170.41 160.191 170.952 160.71C171.493 161.229 171.764 161.886 171.764 162.682C171.764 163.205 171.643 163.68 171.401 164.108C171.158 164.532 170.802 164.871 170.332 165.125C169.863 165.375 169.287 165.5 168.605 165.5H164.946V156.773H166.287V164.25H168.605C169.135 164.25 169.571 164.11 169.912 163.83C170.253 163.549 170.423 163.189 170.423 162.75C170.423 162.288 170.253 161.911 169.912 161.619C169.571 161.328 169.135 161.182 168.605 161.182H166.105V159.932ZM178.305 165.5V156.773H185.169V165.5H183.828V158.023H179.646V165.5H178.305ZM191.163 165.682C190.375 165.682 189.684 165.494 189.089 165.119C188.499 164.744 188.036 164.22 187.703 163.545C187.374 162.871 187.209 162.083 187.209 161.182C187.209 160.273 187.374 159.479 187.703 158.801C188.036 158.123 188.499 157.597 189.089 157.222C189.684 156.847 190.375 156.659 191.163 156.659C191.951 156.659 192.641 156.847 193.232 157.222C193.826 157.597 194.288 158.123 194.618 158.801C194.951 159.479 195.118 160.273 195.118 161.182C195.118 162.083 194.951 162.871 194.618 163.545C194.288 164.22 193.826 164.744 193.232 165.119C192.641 165.494 191.951 165.682 191.163 165.682ZM191.163 164.477C191.762 164.477 192.254 164.324 192.641 164.017C193.027 163.71 193.313 163.307 193.499 162.807C193.684 162.307 193.777 161.765 193.777 161.182C193.777 160.598 193.684 160.055 193.499 159.551C193.313 159.047 193.027 158.64 192.641 158.33C192.254 158.019 191.762 157.864 191.163 157.864C190.565 157.864 190.072 158.019 189.686 158.33C189.3 158.64 189.014 159.047 188.828 159.551C188.643 160.055 188.55 160.598 188.55 161.182C188.55 161.765 188.643 162.307 188.828 162.807C189.014 163.307 189.3 163.71 189.686 164.017C190.072 164.324 190.565 164.477 191.163 164.477ZM203.892 156.773V165.5H202.551V156.773H203.892ZM203.369 160.932V162.182C203.066 162.295 202.765 162.396 202.466 162.483C202.167 162.566 201.852 162.633 201.523 162.682C201.193 162.727 200.831 162.75 200.438 162.75C199.449 162.75 198.655 162.483 198.057 161.949C197.462 161.415 197.165 160.614 197.165 159.545V156.75H198.506V159.545C198.506 159.992 198.591 160.36 198.761 160.648C198.932 160.936 199.163 161.15 199.455 161.29C199.746 161.43 200.074 161.5 200.438 161.5C201.006 161.5 201.519 161.449 201.977 161.347C202.439 161.241 202.903 161.102 203.369 160.932ZM205.165 158.023V156.773H212.256V158.023H209.392V165.5H208.051V158.023H205.165ZM215.075 168.773C214.848 168.773 214.645 168.754 214.467 168.716C214.289 168.682 214.166 168.648 214.098 168.614L214.439 167.432C214.765 167.515 215.053 167.545 215.303 167.523C215.553 167.5 215.774 167.388 215.967 167.188C216.164 166.991 216.344 166.67 216.507 166.227L216.757 165.545L213.53 156.773H214.984L217.393 163.727H217.484L219.893 156.773H221.348L217.643 166.773C217.477 167.223 217.27 167.597 217.024 167.892C216.778 168.191 216.492 168.413 216.166 168.557C215.844 168.701 215.481 168.773 215.075 168.773Z" fill="black"/>
<rect x="0.5" y="195" width="275" height="60" rx="8" fill="#F9FAFB"/>
<path d="M118.614 218.864V230.5H117.205V220.114H111.341V230.5H109.932V218.864H118.614ZM123.842 230.705C123.289 230.705 122.787 230.6 122.337 230.392C121.886 230.18 121.528 229.875 121.263 229.477C120.998 229.076 120.865 228.591 120.865 228.023C120.865 227.523 120.964 227.117 121.161 226.807C121.357 226.492 121.621 226.246 121.95 226.068C122.28 225.89 122.643 225.758 123.041 225.67C123.443 225.58 123.846 225.508 124.251 225.455C124.782 225.386 125.212 225.335 125.541 225.301C125.875 225.263 126.117 225.201 126.268 225.114C126.424 225.027 126.501 224.875 126.501 224.659V224.614C126.501 224.053 126.348 223.617 126.041 223.307C125.738 222.996 125.278 222.841 124.661 222.841C124.02 222.841 123.518 222.981 123.155 223.261C122.791 223.542 122.536 223.841 122.388 224.159L121.115 223.705C121.342 223.174 121.645 222.761 122.024 222.466C122.407 222.167 122.823 221.958 123.274 221.841C123.729 221.72 124.176 221.659 124.615 221.659C124.895 221.659 125.217 221.693 125.581 221.761C125.948 221.826 126.303 221.96 126.643 222.165C126.988 222.369 127.274 222.678 127.501 223.091C127.729 223.504 127.842 224.057 127.842 224.75V230.5H126.501V229.318H126.433C126.342 229.508 126.191 229.71 125.979 229.926C125.767 230.142 125.484 230.326 125.132 230.477C124.78 230.629 124.35 230.705 123.842 230.705ZM124.047 229.5C124.577 229.5 125.024 229.396 125.388 229.188C125.755 228.979 126.032 228.71 126.217 228.381C126.407 228.051 126.501 227.705 126.501 227.341V226.114C126.445 226.182 126.32 226.244 126.126 226.301C125.937 226.354 125.717 226.402 125.467 226.443C125.221 226.481 124.981 226.515 124.746 226.545C124.515 226.572 124.327 226.595 124.183 226.614C123.835 226.659 123.509 226.733 123.206 226.835C122.907 226.934 122.664 227.083 122.479 227.284C122.297 227.481 122.206 227.75 122.206 228.091C122.206 228.557 122.378 228.909 122.723 229.148C123.071 229.383 123.513 229.5 124.047 229.5ZM130.29 233.773V221.773H131.585V223.159H131.744C131.843 223.008 131.979 222.814 132.153 222.58C132.331 222.341 132.585 222.129 132.915 221.943C133.248 221.754 133.699 221.659 134.267 221.659C135.002 221.659 135.65 221.843 136.21 222.21C136.771 222.578 137.208 223.098 137.523 223.773C137.837 224.447 137.994 225.242 137.994 226.159C137.994 227.083 137.837 227.884 137.523 228.562C137.208 229.237 136.773 229.759 136.216 230.131C135.659 230.498 135.017 230.682 134.29 230.682C133.729 230.682 133.28 230.589 132.943 230.403C132.606 230.214 132.347 230 132.165 229.761C131.983 229.519 131.843 229.318 131.744 229.159H131.631V233.773H130.29ZM131.608 226.136C131.608 226.795 131.705 227.377 131.898 227.881C132.091 228.381 132.373 228.773 132.744 229.057C133.116 229.337 133.57 229.477 134.108 229.477C134.669 229.477 135.136 229.33 135.511 229.034C135.89 228.735 136.174 228.333 136.364 227.83C136.557 227.322 136.653 226.758 136.653 226.136C136.653 225.523 136.559 224.97 136.369 224.477C136.184 223.981 135.902 223.589 135.523 223.301C135.148 223.009 134.676 222.864 134.108 222.864C133.563 222.864 133.104 223.002 132.733 223.278C132.362 223.551 132.081 223.934 131.892 224.426C131.703 224.915 131.608 225.485 131.608 226.136ZM143.585 230.682C142.797 230.682 142.106 230.494 141.511 230.119C140.92 229.744 140.458 229.22 140.125 228.545C139.795 227.871 139.631 227.083 139.631 226.182C139.631 225.273 139.795 224.479 140.125 223.801C140.458 223.123 140.92 222.597 141.511 222.222C142.106 221.847 142.797 221.659 143.585 221.659C144.373 221.659 145.063 221.847 145.653 222.222C146.248 222.597 146.71 223.123 147.04 223.801C147.373 224.479 147.54 225.273 147.54 226.182C147.54 227.083 147.373 227.871 147.04 228.545C146.71 229.22 146.248 229.744 145.653 230.119C145.063 230.494 144.373 230.682 143.585 230.682ZM143.585 229.477C144.184 229.477 144.676 229.324 145.062 229.017C145.449 228.71 145.735 228.307 145.92 227.807C146.106 227.307 146.199 226.765 146.199 226.182C146.199 225.598 146.106 225.055 145.92 224.551C145.735 224.047 145.449 223.64 145.062 223.33C144.676 223.019 144.184 222.864 143.585 222.864C142.987 222.864 142.494 223.019 142.108 223.33C141.722 223.64 141.436 224.047 141.25 224.551C141.064 225.055 140.972 225.598 140.972 226.182C140.972 226.765 141.064 227.307 141.25 227.807C141.436 228.307 141.722 228.71 142.108 229.017C142.494 229.324 142.987 229.477 143.585 229.477ZM148.814 230.5V229.25H149.132C149.393 229.25 149.611 229.199 149.786 229.097C149.96 228.991 150.1 228.807 150.206 228.545C150.316 228.28 150.399 227.913 150.456 227.443C150.517 226.97 150.56 226.367 150.587 225.636L150.746 221.773H156.564V230.5H155.223V223.023H152.018L151.882 226.136C151.852 226.852 151.787 227.483 151.689 228.028C151.594 228.57 151.448 229.025 151.251 229.392C151.058 229.759 150.801 230.036 150.479 230.222C150.157 230.407 149.753 230.5 149.268 230.5H148.814ZM160.183 224.932H162.683C163.706 224.932 164.488 225.191 165.03 225.71C165.571 226.229 165.842 226.886 165.842 227.682C165.842 228.205 165.721 228.68 165.479 229.108C165.236 229.532 164.88 229.871 164.411 230.125C163.941 230.375 163.365 230.5 162.683 230.5H159.024V221.773H160.365V229.25H162.683C163.214 229.25 163.649 229.11 163.99 228.83C164.331 228.549 164.501 228.189 164.501 227.75C164.501 227.288 164.331 226.911 163.99 226.619C163.649 226.328 163.214 226.182 162.683 226.182H160.183V224.932Z" fill="black"/>
<rect x="0.5" y="260" width="275" height="60" rx="8" fill="#F9FAFB"/>
<path d="M49.0227 295.659V294.341H49.75C50.0303 294.341 50.2652 294.286 50.4545 294.176C50.6477 294.066 50.8068 293.924 50.9318 293.75C51.0606 293.576 51.1667 293.394 51.25 293.205L51.4318 292.773L47.4091 283.864H48.9318L52.1364 291.091L55.0682 283.864H56.5682L52.5455 293.614C52.3864 293.977 52.2045 294.314 52 294.625C51.7992 294.936 51.5246 295.186 51.1761 295.375C50.8314 295.564 50.3636 295.659 49.7727 295.659H49.0227ZM57.571 295.5V286.773H64.4347V295.5H63.0938V288.023H58.9119V295.5H57.571ZM66.8835 298.773V286.773H68.179V288.159H68.3381C68.4366 288.008 68.5729 287.814 68.7472 287.58C68.9252 287.341 69.179 287.129 69.5085 286.943C69.8419 286.754 70.2926 286.659 70.8608 286.659C71.5956 286.659 72.2434 286.843 72.804 287.21C73.3646 287.578 73.8021 288.098 74.1165 288.773C74.4309 289.447 74.5881 290.242 74.5881 291.159C74.5881 292.083 74.4309 292.884 74.1165 293.562C73.8021 294.237 73.3665 294.759 72.8097 295.131C72.2528 295.498 71.6108 295.682 70.8835 295.682C70.3229 295.682 69.8741 295.589 69.5369 295.403C69.1998 295.214 68.9403 295 68.7585 294.761C68.5767 294.519 68.4366 294.318 68.3381 294.159H68.2244V298.773H66.8835ZM68.2017 291.136C68.2017 291.795 68.2983 292.377 68.4915 292.881C68.6847 293.381 68.9669 293.773 69.3381 294.057C69.7093 294.337 70.1638 294.477 70.7017 294.477C71.2623 294.477 71.7301 294.33 72.1051 294.034C72.4839 293.735 72.768 293.333 72.9574 292.83C73.1506 292.322 73.2472 291.758 73.2472 291.136C73.2472 290.523 73.1525 289.97 72.9631 289.477C72.7775 288.981 72.4953 288.589 72.1165 288.301C71.7415 288.009 71.2699 287.864 70.7017 287.864C70.1563 287.864 69.6979 288.002 69.3267 288.278C68.9555 288.551 68.6752 288.934 68.4858 289.426C68.2964 289.915 68.2017 290.485 68.2017 291.136ZM79.2017 295.705C78.6487 295.705 78.1468 295.6 77.696 295.392C77.2453 295.18 76.8873 294.875 76.6222 294.477C76.357 294.076 76.2244 293.591 76.2244 293.023C76.2244 292.523 76.3229 292.117 76.5199 291.807C76.7169 291.492 76.9801 291.246 77.3097 291.068C77.6392 290.89 78.0028 290.758 78.4006 290.67C78.8021 290.58 79.2055 290.508 79.6108 290.455C80.1411 290.386 80.571 290.335 80.9006 290.301C81.2339 290.263 81.4763 290.201 81.6278 290.114C81.7831 290.027 81.8608 289.875 81.8608 289.659V289.614C81.8608 289.053 81.7074 288.617 81.4006 288.307C81.0975 287.996 80.6373 287.841 80.0199 287.841C79.3797 287.841 78.8778 287.981 78.5142 288.261C78.1506 288.542 77.8949 288.841 77.7472 289.159L76.4744 288.705C76.7017 288.174 77.0047 287.761 77.3835 287.466C77.7661 287.167 78.1828 286.958 78.6335 286.841C79.0881 286.72 79.535 286.659 79.9744 286.659C80.2547 286.659 80.5767 286.693 80.9403 286.761C81.3078 286.826 81.6619 286.96 82.0028 287.165C82.3475 287.369 82.6335 287.678 82.8608 288.091C83.0881 288.504 83.2017 289.057 83.2017 289.75V295.5H81.8608V294.318H81.7926C81.7017 294.508 81.5502 294.71 81.3381 294.926C81.1259 295.142 80.8438 295.326 80.4915 295.477C80.1392 295.629 79.7093 295.705 79.2017 295.705ZM79.4062 294.5C79.9366 294.5 80.3835 294.396 80.7472 294.188C81.1146 293.979 81.3911 293.71 81.5767 293.381C81.7661 293.051 81.8608 292.705 81.8608 292.341V291.114C81.804 291.182 81.679 291.244 81.4858 291.301C81.2964 291.354 81.0767 291.402 80.8267 291.443C80.5805 291.481 80.34 291.515 80.1051 291.545C79.8741 291.572 79.6866 291.595 79.5426 291.614C79.1941 291.659 78.8684 291.733 78.5653 291.835C78.2661 291.934 78.0237 292.083 77.8381 292.284C77.6563 292.481 77.5653 292.75 77.5653 293.091C77.5653 293.557 77.7377 293.909 78.0824 294.148C78.4309 294.383 78.8722 294.5 79.4062 294.5ZM85.6491 295.5V286.773H89.2173C90.1567 286.773 90.9029 286.985 91.456 287.409C92.009 287.833 92.2855 288.394 92.2855 289.091C92.2855 289.621 92.1283 290.032 91.8139 290.324C91.4995 290.612 91.0961 290.807 90.6037 290.909C90.9257 290.955 91.2382 291.068 91.5412 291.25C91.848 291.432 92.1018 291.682 92.3026 292C92.5033 292.314 92.6037 292.701 92.6037 293.159C92.6037 293.606 92.4901 294.006 92.2628 294.358C92.0355 294.71 91.7098 294.989 91.2855 295.193C90.8613 295.398 90.3537 295.5 89.7628 295.5H85.6491ZM86.9219 294.273H89.7628C90.2249 294.273 90.5866 294.163 90.848 293.943C91.1094 293.723 91.2401 293.424 91.2401 293.045C91.2401 292.595 91.1094 292.241 90.848 291.983C90.5866 291.722 90.2249 291.591 89.7628 291.591H86.9219V294.273ZM86.9219 290.432H89.2173C89.5772 290.432 89.8859 290.383 90.1435 290.284C90.401 290.182 90.598 290.038 90.7344 289.852C90.8745 289.663 90.9446 289.439 90.9446 289.182C90.9446 288.814 90.7912 288.527 90.4844 288.318C90.1776 288.106 89.7552 288 89.2173 288H86.9219V290.432ZM93.8608 295.5V294.25H94.179C94.4403 294.25 94.6581 294.199 94.8324 294.097C95.0066 293.991 95.1468 293.807 95.2528 293.545C95.3627 293.28 95.446 292.913 95.5028 292.443C95.5634 291.97 95.607 291.367 95.6335 290.636L95.7926 286.773H101.611V295.5H100.27V288.023H97.0653L96.929 291.136C96.8987 291.852 96.8343 292.483 96.7358 293.028C96.6411 293.57 96.4953 294.025 96.2983 294.392C96.1051 294.759 95.8475 295.036 95.5256 295.222C95.2036 295.407 94.8002 295.5 94.3153 295.5H93.8608ZM107.73 295.682C106.889 295.682 106.164 295.496 105.554 295.125C104.948 294.75 104.48 294.227 104.151 293.557C103.825 292.883 103.662 292.098 103.662 291.205C103.662 290.311 103.825 289.523 104.151 288.841C104.48 288.155 104.938 287.621 105.526 287.239C106.116 286.852 106.806 286.659 107.594 286.659C108.048 286.659 108.497 286.735 108.94 286.886C109.384 287.038 109.787 287.284 110.151 287.625C110.514 287.962 110.804 288.409 111.02 288.966C111.236 289.523 111.344 290.208 111.344 291.023V291.591H104.616V290.432H109.98C109.98 289.939 109.882 289.5 109.685 289.114C109.491 288.727 109.215 288.422 108.855 288.199C108.499 287.975 108.079 287.864 107.594 287.864C107.06 287.864 106.598 287.996 106.207 288.261C105.821 288.523 105.524 288.864 105.315 289.284C105.107 289.705 105.003 290.155 105.003 290.636V291.409C105.003 292.068 105.116 292.627 105.344 293.085C105.575 293.54 105.895 293.886 106.304 294.125C106.713 294.36 107.188 294.477 107.73 294.477C108.082 294.477 108.401 294.428 108.685 294.33C108.973 294.227 109.221 294.076 109.429 293.875C109.637 293.67 109.798 293.417 109.912 293.114L111.207 293.477C111.071 293.917 110.842 294.303 110.52 294.636C110.198 294.966 109.8 295.223 109.327 295.409C108.853 295.591 108.321 295.682 107.73 295.682ZM119.224 290.523V291.773H114.406V290.523H119.224ZM114.724 286.773V295.5H113.384V286.773H114.724ZM120.247 286.773V295.5H118.906V286.773H120.247ZM124.037 293.523L128.241 286.773H129.787V295.5H128.446V288.75L124.264 295.5H122.696V286.773H124.037V293.523ZM135.902 295.682C135.061 295.682 134.336 295.496 133.726 295.125C133.12 294.75 132.652 294.227 132.322 293.557C131.997 292.883 131.834 292.098 131.834 291.205C131.834 290.311 131.997 289.523 132.322 288.841C132.652 288.155 133.11 287.621 133.697 287.239C134.288 286.852 134.978 286.659 135.766 286.659C136.22 286.659 136.669 286.735 137.112 286.886C137.555 287.038 137.959 287.284 138.322 287.625C138.686 287.962 138.976 288.409 139.192 288.966C139.408 289.523 139.516 290.208 139.516 291.023V291.591H132.788V290.432H138.152C138.152 289.939 138.054 289.5 137.857 289.114C137.663 288.727 137.387 288.422 137.027 288.199C136.671 287.975 136.25 287.864 135.766 287.864C135.232 287.864 134.769 287.996 134.379 288.261C133.993 288.523 133.696 288.864 133.487 289.284C133.279 289.705 133.175 290.155 133.175 290.636V291.409C133.175 292.068 133.288 292.627 133.516 293.085C133.747 293.54 134.067 293.886 134.476 294.125C134.885 294.36 135.36 294.477 135.902 294.477C136.254 294.477 136.572 294.428 136.857 294.33C137.144 294.227 137.393 294.076 137.601 293.875C137.809 293.67 137.97 293.417 138.084 293.114L139.379 293.477C139.243 293.917 139.014 294.303 138.692 294.636C138.37 294.966 137.972 295.223 137.499 295.409C137.025 295.591 136.493 295.682 135.902 295.682ZM146.055 295.5V286.773H152.919V295.5H151.578V288.023H147.396V295.5H146.055ZM158.913 295.682C158.125 295.682 157.434 295.494 156.839 295.119C156.249 294.744 155.786 294.22 155.453 293.545C155.124 292.871 154.959 292.083 154.959 291.182C154.959 290.273 155.124 289.479 155.453 288.801C155.786 288.123 156.249 287.597 156.839 287.222C157.434 286.847 158.125 286.659 158.913 286.659C159.701 286.659 160.391 286.847 160.982 287.222C161.576 287.597 162.038 288.123 162.368 288.801C162.701 289.479 162.868 290.273 162.868 291.182C162.868 292.083 162.701 292.871 162.368 293.545C162.038 294.22 161.576 294.744 160.982 295.119C160.391 295.494 159.701 295.682 158.913 295.682ZM158.913 294.477C159.512 294.477 160.004 294.324 160.391 294.017C160.777 293.71 161.063 293.307 161.249 292.807C161.434 292.307 161.527 291.765 161.527 291.182C161.527 290.598 161.434 290.055 161.249 289.551C161.063 289.047 160.777 288.64 160.391 288.33C160.004 288.019 159.512 287.864 158.913 287.864C158.315 287.864 157.822 288.019 157.436 288.33C157.05 288.64 156.764 289.047 156.578 289.551C156.393 290.055 156.3 290.598 156.3 291.182C156.3 291.765 156.393 292.307 156.578 292.807C156.764 293.307 157.05 293.71 157.436 294.017C157.822 294.324 158.315 294.477 158.913 294.477ZM163.983 298V294.25H164.71C164.888 294.064 165.042 293.864 165.17 293.648C165.299 293.432 165.411 293.176 165.506 292.881C165.604 292.581 165.688 292.218 165.756 291.79C165.824 291.358 165.884 290.837 165.938 290.227L166.233 286.773H171.778V294.25H173.119V298H171.778V295.5H165.324V298H163.983ZM166.233 294.25H170.438V288.023H167.483L167.256 290.227C167.161 291.14 167.044 291.937 166.903 292.619C166.763 293.301 166.54 293.845 166.233 294.25ZM174.899 295.5V286.773H181.763V295.5H180.422V288.023H176.24V295.5H174.899ZM185.553 293.523L189.757 286.773H191.303V295.5H189.962V288.75L185.78 295.5H184.212V286.773H185.553V293.523ZM197.304 295.682C196.486 295.682 195.781 295.489 195.19 295.102C194.599 294.716 194.145 294.184 193.827 293.506C193.509 292.828 193.349 292.053 193.349 291.182C193.349 290.295 193.512 289.513 193.838 288.835C194.168 288.153 194.626 287.621 195.213 287.239C195.804 286.852 196.493 286.659 197.281 286.659C197.895 286.659 198.448 286.773 198.94 287C199.433 287.227 199.836 287.545 200.151 287.955C200.465 288.364 200.66 288.841 200.736 289.386H199.395C199.293 288.989 199.065 288.636 198.713 288.33C198.365 288.019 197.895 287.864 197.304 287.864C196.781 287.864 196.323 288 195.929 288.273C195.539 288.542 195.234 288.922 195.014 289.415C194.798 289.903 194.69 290.477 194.69 291.136C194.69 291.811 194.796 292.398 195.009 292.898C195.224 293.398 195.527 293.786 195.918 294.062C196.312 294.339 196.774 294.477 197.304 294.477C197.652 294.477 197.969 294.417 198.253 294.295C198.537 294.174 198.777 294 198.974 293.773C199.171 293.545 199.312 293.273 199.395 292.955H200.736C200.66 293.47 200.473 293.934 200.173 294.347C199.878 294.756 199.486 295.081 198.997 295.324C198.512 295.562 197.948 295.682 197.304 295.682ZM202.696 295.5V286.773H204.037V290.568H204.923L208.06 286.773H209.787L206.264 290.977L209.832 295.5H208.105L205.241 291.818H204.037V295.5H202.696ZM214.476 295.682C213.688 295.682 212.997 295.494 212.402 295.119C211.811 294.744 211.349 294.22 211.016 293.545C210.686 292.871 210.521 292.083 210.521 291.182C210.521 290.273 210.686 289.479 211.016 288.801C211.349 288.123 211.811 287.597 212.402 287.222C212.997 286.847 213.688 286.659 214.476 286.659C215.264 286.659 215.953 286.847 216.544 287.222C217.139 287.597 217.601 288.123 217.93 288.801C218.264 289.479 218.43 290.273 218.43 291.182C218.43 292.083 218.264 292.871 217.93 293.545C217.601 294.22 217.139 294.744 216.544 295.119C215.953 295.494 215.264 295.682 214.476 295.682ZM214.476 294.477C215.074 294.477 215.567 294.324 215.953 294.017C216.339 293.71 216.625 293.307 216.811 292.807C216.997 292.307 217.089 291.765 217.089 291.182C217.089 290.598 216.997 290.055 216.811 289.551C216.625 289.047 216.339 288.64 215.953 288.33C215.567 288.019 215.074 287.864 214.476 287.864C213.877 287.864 213.385 288.019 212.999 288.33C212.612 288.64 212.326 289.047 212.141 289.551C211.955 290.055 211.862 290.598 211.862 291.182C211.862 291.765 211.955 292.307 212.141 292.807C212.326 293.307 212.612 293.71 212.999 294.017C213.385 294.324 213.877 294.477 214.476 294.477ZM221.818 293.523L226.023 286.773H227.568V295.5H226.227V288.75L222.045 295.5H220.477V286.773H221.818V293.523ZM225.136 283.864H226.386C226.386 284.477 226.174 284.979 225.75 285.369C225.326 285.759 224.75 285.955 224.023 285.955C223.307 285.955 222.737 285.759 222.312 285.369C221.892 284.979 221.682 284.477 221.682 283.864H222.932C222.932 284.159 223.013 284.419 223.176 284.642C223.343 284.866 223.625 284.977 224.023 284.977C224.42 284.977 224.705 284.866 224.875 284.642C225.049 284.419 225.136 284.159 225.136 283.864Z" fill="black"/>
<rect x="0.5" y="325" width="275" height="60" rx="8" fill="#F9FAFB"/>
<path d="M34.5227 360.659V359.341H35.25C35.5303 359.341 35.7652 359.286 35.9545 359.176C36.1477 359.066 36.3068 358.924 36.4318 358.75C36.5606 358.576 36.6667 358.394 36.75 358.205L36.9318 357.773L32.9091 348.864H34.4318L37.6364 356.091L40.5682 348.864H42.0682L38.0455 358.614C37.8864 358.977 37.7045 359.314 37.5 359.625C37.2992 359.936 37.0246 360.186 36.6761 360.375C36.3314 360.564 35.8636 360.659 35.2727 360.659H34.5227ZM43.071 360.5V351.773H49.9347V360.5H48.5938V353.023H44.4119V360.5H43.071ZM52.3835 363.773V351.773H53.679V353.159H53.8381C53.9366 353.008 54.0729 352.814 54.2472 352.58C54.4252 352.341 54.679 352.129 55.0085 351.943C55.3419 351.754 55.7926 351.659 56.3608 351.659C57.0956 351.659 57.7434 351.843 58.304 352.21C58.8646 352.578 59.3021 353.098 59.6165 353.773C59.9309 354.447 60.0881 355.242 60.0881 356.159C60.0881 357.083 59.9309 357.884 59.6165 358.562C59.3021 359.237 58.8665 359.759 58.3097 360.131C57.7528 360.498 57.1108 360.682 56.3835 360.682C55.8229 360.682 55.3741 360.589 55.0369 360.403C54.6998 360.214 54.4403 360 54.2585 359.761C54.0767 359.519 53.9366 359.318 53.8381 359.159H53.7244V363.773H52.3835ZM53.7017 356.136C53.7017 356.795 53.7983 357.377 53.9915 357.881C54.1847 358.381 54.4669 358.773 54.8381 359.057C55.2093 359.337 55.6638 359.477 56.2017 359.477C56.7623 359.477 57.2301 359.33 57.6051 359.034C57.9839 358.735 58.268 358.333 58.4574 357.83C58.6506 357.322 58.7472 356.758 58.7472 356.136C58.7472 355.523 58.6525 354.97 58.4631 354.477C58.2775 353.981 57.9953 353.589 57.6165 353.301C57.2415 353.009 56.7699 352.864 56.2017 352.864C55.6563 352.864 55.1979 353.002 54.8267 353.278C54.4555 353.551 54.1752 353.934 53.9858 354.426C53.7964 354.915 53.7017 355.485 53.7017 356.136ZM64.7017 360.705C64.1487 360.705 63.6468 360.6 63.196 360.392C62.7453 360.18 62.3873 359.875 62.1222 359.477C61.857 359.076 61.7244 358.591 61.7244 358.023C61.7244 357.523 61.8229 357.117 62.0199 356.807C62.2169 356.492 62.4801 356.246 62.8097 356.068C63.1392 355.89 63.5028 355.758 63.9006 355.67C64.3021 355.58 64.7055 355.508 65.1108 355.455C65.6411 355.386 66.071 355.335 66.4006 355.301C66.7339 355.263 66.9763 355.201 67.1278 355.114C67.2831 355.027 67.3608 354.875 67.3608 354.659V354.614C67.3608 354.053 67.2074 353.617 66.9006 353.307C66.5975 352.996 66.1373 352.841 65.5199 352.841C64.8797 352.841 64.3778 352.981 64.0142 353.261C63.6506 353.542 63.3949 353.841 63.2472 354.159L61.9744 353.705C62.2017 353.174 62.5047 352.761 62.8835 352.466C63.2661 352.167 63.6828 351.958 64.1335 351.841C64.5881 351.72 65.035 351.659 65.4744 351.659C65.7547 351.659 66.0767 351.693 66.4403 351.761C66.8078 351.826 67.1619 351.96 67.5028 352.165C67.8475 352.369 68.1335 352.678 68.3608 353.091C68.5881 353.504 68.7017 354.057 68.7017 354.75V360.5H67.3608V359.318H67.2926C67.2017 359.508 67.0502 359.71 66.8381 359.926C66.6259 360.142 66.3438 360.326 65.9915 360.477C65.6392 360.629 65.2093 360.705 64.7017 360.705ZM64.9062 359.5C65.4366 359.5 65.8835 359.396 66.2472 359.188C66.6146 358.979 66.8911 358.71 67.0767 358.381C67.2661 358.051 67.3608 357.705 67.3608 357.341V356.114C67.304 356.182 67.179 356.244 66.9858 356.301C66.7964 356.354 66.5767 356.402 66.3267 356.443C66.0805 356.481 65.84 356.515 65.6051 356.545C65.3741 356.572 65.1866 356.595 65.0426 356.614C64.6941 356.659 64.3684 356.733 64.0653 356.835C63.7661 356.934 63.5237 357.083 63.3381 357.284C63.1563 357.481 63.0653 357.75 63.0653 358.091C63.0653 358.557 63.2377 358.909 63.5824 359.148C63.9309 359.383 64.3722 359.5 64.9062 359.5ZM71.1491 360.5V351.773H74.7173C75.6567 351.773 76.4029 351.985 76.956 352.409C77.509 352.833 77.7855 353.394 77.7855 354.091C77.7855 354.621 77.6283 355.032 77.3139 355.324C76.9995 355.612 76.5961 355.807 76.1037 355.909C76.4257 355.955 76.7382 356.068 77.0412 356.25C77.348 356.432 77.6018 356.682 77.8026 357C78.0033 357.314 78.1037 357.701 78.1037 358.159C78.1037 358.606 77.9901 359.006 77.7628 359.358C77.5355 359.71 77.2098 359.989 76.7855 360.193C76.3613 360.398 75.8537 360.5 75.2628 360.5H71.1491ZM72.4219 359.273H75.2628C75.7249 359.273 76.0866 359.163 76.348 358.943C76.6094 358.723 76.7401 358.424 76.7401 358.045C76.7401 357.595 76.6094 357.241 76.348 356.983C76.0866 356.722 75.7249 356.591 75.2628 356.591H72.4219V359.273ZM72.4219 355.432H74.7173C75.0772 355.432 75.3859 355.383 75.6435 355.284C75.901 355.182 76.098 355.038 76.2344 354.852C76.3745 354.663 76.4446 354.439 76.4446 354.182C76.4446 353.814 76.2912 353.527 75.9844 353.318C75.6776 353.106 75.2552 353 74.7173 353H72.4219V355.432ZM79.3608 360.5V359.25H79.679C79.9403 359.25 80.1581 359.199 80.3324 359.097C80.5066 358.991 80.6468 358.807 80.7528 358.545C80.8627 358.28 80.946 357.913 81.0028 357.443C81.0634 356.97 81.107 356.367 81.1335 355.636L81.2926 351.773H87.1108V360.5H85.7699V353.023H82.5653L82.429 356.136C82.3987 356.852 82.3343 357.483 82.2358 358.028C82.1411 358.57 81.9953 359.025 81.7983 359.392C81.6051 359.759 81.3475 360.036 81.0256 360.222C80.7036 360.407 80.3002 360.5 79.8153 360.5H79.3608ZM93.2301 360.682C92.3892 360.682 91.6638 360.496 91.054 360.125C90.4479 359.75 89.9801 359.227 89.6506 358.557C89.3248 357.883 89.1619 357.098 89.1619 356.205C89.1619 355.311 89.3248 354.523 89.6506 353.841C89.9801 353.155 90.4384 352.621 91.0256 352.239C91.6165 351.852 92.3059 351.659 93.0938 351.659C93.5483 351.659 93.9972 351.735 94.4403 351.886C94.8835 352.038 95.2869 352.284 95.6506 352.625C96.0142 352.962 96.304 353.409 96.5199 353.966C96.7358 354.523 96.8438 355.208 96.8438 356.023V356.591H90.1165V355.432H95.4801C95.4801 354.939 95.3816 354.5 95.1847 354.114C94.9915 353.727 94.715 353.422 94.3551 353.199C93.9991 352.975 93.5786 352.864 93.0938 352.864C92.5597 352.864 92.0975 352.996 91.7074 353.261C91.321 353.523 91.0237 353.864 90.8153 354.284C90.607 354.705 90.5028 355.155 90.5028 355.636V356.409C90.5028 357.068 90.6165 357.627 90.8438 358.085C91.0748 358.54 91.3949 358.886 91.804 359.125C92.2131 359.36 92.6884 359.477 93.2301 359.477C93.5824 359.477 93.9006 359.428 94.1847 359.33C94.4725 359.227 94.7206 359.076 94.929 358.875C95.1373 358.67 95.2983 358.417 95.4119 358.114L96.7074 358.477C96.571 358.917 96.3419 359.303 96.0199 359.636C95.6979 359.966 95.3002 360.223 94.8267 360.409C94.3532 360.591 93.821 360.682 93.2301 360.682ZM104.724 355.523V356.773H99.9062V355.523H104.724ZM100.224 351.773V360.5H98.8835V351.773H100.224ZM105.747 351.773V360.5H104.406V351.773H105.747ZM109.537 358.523L113.741 351.773H115.287V360.5H113.946V353.75L109.764 360.5H108.196V351.773H109.537V358.523ZM121.402 360.682C120.561 360.682 119.836 360.496 119.226 360.125C118.62 359.75 118.152 359.227 117.822 358.557C117.497 357.883 117.334 357.098 117.334 356.205C117.334 355.311 117.497 354.523 117.822 353.841C118.152 353.155 118.61 352.621 119.197 352.239C119.788 351.852 120.478 351.659 121.266 351.659C121.72 351.659 122.169 351.735 122.612 351.886C123.055 352.038 123.459 352.284 123.822 352.625C124.186 352.962 124.476 353.409 124.692 353.966C124.908 354.523 125.016 355.208 125.016 356.023V356.591H118.288V355.432H123.652C123.652 354.939 123.554 354.5 123.357 354.114C123.163 353.727 122.887 353.422 122.527 353.199C122.171 352.975 121.75 352.864 121.266 352.864C120.732 352.864 120.269 352.996 119.879 353.261C119.493 353.523 119.196 353.864 118.987 354.284C118.779 354.705 118.675 355.155 118.675 355.636V356.409C118.675 357.068 118.788 357.627 119.016 358.085C119.247 358.54 119.567 358.886 119.976 359.125C120.385 359.36 120.86 359.477 121.402 359.477C121.754 359.477 122.072 359.428 122.357 359.33C122.644 359.227 122.893 359.076 123.101 358.875C123.309 358.67 123.47 358.417 123.584 358.114L124.879 358.477C124.743 358.917 124.514 359.303 124.192 359.636C123.87 359.966 123.472 360.223 122.999 360.409C122.525 360.591 121.993 360.682 121.402 360.682ZM131.555 360.5V351.773H132.896V355.568H133.783L136.919 351.773H138.646L135.124 355.977L138.692 360.5H136.964L134.101 356.818H132.896V360.5H131.555ZM143.335 360.682C142.547 360.682 141.856 360.494 141.261 360.119C140.67 359.744 140.208 359.22 139.875 358.545C139.545 357.871 139.381 357.083 139.381 356.182C139.381 355.273 139.545 354.479 139.875 353.801C140.208 353.123 140.67 352.597 141.261 352.222C141.856 351.847 142.547 351.659 143.335 351.659C144.123 351.659 144.813 351.847 145.403 352.222C145.998 352.597 146.46 353.123 146.79 353.801C147.123 354.479 147.29 355.273 147.29 356.182C147.29 357.083 147.123 357.871 146.79 358.545C146.46 359.22 145.998 359.744 145.403 360.119C144.813 360.494 144.123 360.682 143.335 360.682ZM143.335 359.477C143.934 359.477 144.426 359.324 144.812 359.017C145.199 358.71 145.485 358.307 145.67 357.807C145.856 357.307 145.949 356.765 145.949 356.182C145.949 355.598 145.856 355.055 145.67 354.551C145.485 354.047 145.199 353.64 144.812 353.33C144.426 353.019 143.934 352.864 143.335 352.864C142.737 352.864 142.244 353.019 141.858 353.33C141.472 353.64 141.186 354.047 141 354.551C140.814 355.055 140.722 355.598 140.722 356.182C140.722 356.765 140.814 357.307 141 357.807C141.186 358.307 141.472 358.71 141.858 359.017C142.244 359.324 142.737 359.477 143.335 359.477ZM155.178 355.523V356.773H150.359V355.523H155.178ZM150.678 351.773V360.5H149.337V351.773H150.678ZM156.2 351.773V360.5H154.859V351.773H156.2ZM157.462 353.023V351.773H164.553V353.023H161.689V360.5H160.348V353.023H157.462ZM169.714 360.682C168.874 360.682 168.148 360.496 167.538 360.125C166.932 359.75 166.464 359.227 166.135 358.557C165.809 357.883 165.646 357.098 165.646 356.205C165.646 355.311 165.809 354.523 166.135 353.841C166.464 353.155 166.923 352.621 167.51 352.239C168.101 351.852 168.79 351.659 169.578 351.659C170.033 351.659 170.482 351.735 170.925 351.886C171.368 352.038 171.771 352.284 172.135 352.625C172.499 352.962 172.788 353.409 173.004 353.966C173.22 354.523 173.328 355.208 173.328 356.023V356.591H166.601V355.432H171.964C171.964 354.939 171.866 354.5 171.669 354.114C171.476 353.727 171.199 353.422 170.839 353.199C170.483 352.975 170.063 352.864 169.578 352.864C169.044 352.864 168.582 352.996 168.192 353.261C167.805 353.523 167.508 353.864 167.3 354.284C167.091 354.705 166.987 355.155 166.987 355.636V356.409C166.987 357.068 167.101 357.627 167.328 358.085C167.559 358.54 167.879 358.886 168.288 359.125C168.697 359.36 169.173 359.477 169.714 359.477C170.067 359.477 170.385 359.428 170.669 359.33C170.957 359.227 171.205 359.076 171.413 358.875C171.622 358.67 171.783 358.417 171.896 358.114L173.192 358.477C173.055 358.917 172.826 359.303 172.504 359.636C172.182 359.966 171.785 360.223 171.311 360.409C170.838 360.591 170.305 360.682 169.714 360.682ZM176.709 358.523L180.913 351.773H182.459V360.5H181.118V353.75L176.936 360.5H175.368V351.773H176.709V358.523ZM180.027 348.864H181.277C181.277 349.477 181.065 349.979 180.641 350.369C180.216 350.759 179.641 350.955 178.913 350.955C178.197 350.955 177.627 350.759 177.203 350.369C176.783 349.979 176.572 349.477 176.572 348.864H177.822C177.822 349.159 177.904 349.419 178.067 349.642C178.233 349.866 178.516 349.977 178.913 349.977C179.311 349.977 179.595 349.866 179.766 349.642C179.94 349.419 180.027 349.159 180.027 348.864ZM190.756 355.523V356.773H185.938V355.523H190.756ZM186.256 351.773V360.5H184.915V351.773H186.256ZM191.778 351.773V360.5H190.438V351.773H191.778ZM197.886 360.682C197.045 360.682 196.32 360.496 195.71 360.125C195.104 359.75 194.636 359.227 194.307 358.557C193.981 357.883 193.818 357.098 193.818 356.205C193.818 355.311 193.981 354.523 194.307 353.841C194.636 353.155 195.095 352.621 195.682 352.239C196.273 351.852 196.962 351.659 197.75 351.659C198.205 351.659 198.653 351.735 199.097 351.886C199.54 352.038 199.943 352.284 200.307 352.625C200.67 352.962 200.96 353.409 201.176 353.966C201.392 354.523 201.5 355.208 201.5 356.023V356.591H194.773V355.432H200.136C200.136 354.939 200.038 354.5 199.841 354.114C199.648 353.727 199.371 353.422 199.011 353.199C198.655 352.975 198.235 352.864 197.75 352.864C197.216 352.864 196.754 352.996 196.364 353.261C195.977 353.523 195.68 353.864 195.472 354.284C195.263 354.705 195.159 355.155 195.159 355.636V356.409C195.159 357.068 195.273 357.627 195.5 358.085C195.731 358.54 196.051 358.886 196.46 359.125C196.869 359.36 197.345 359.477 197.886 359.477C198.239 359.477 198.557 359.428 198.841 359.33C199.129 359.227 199.377 359.076 199.585 358.875C199.794 358.67 199.955 358.417 200.068 358.114L201.364 358.477C201.227 358.917 200.998 359.303 200.676 359.636C200.354 359.966 199.956 360.223 199.483 360.409C199.009 360.591 198.477 360.682 197.886 360.682ZM203.54 363.773V351.773H204.835V353.159H204.994C205.093 353.008 205.229 352.814 205.403 352.58C205.581 352.341 205.835 352.129 206.165 351.943C206.498 351.754 206.949 351.659 207.517 351.659C208.252 351.659 208.9 351.843 209.46 352.21C210.021 352.578 210.458 353.098 210.773 353.773C211.087 354.447 211.244 355.242 211.244 356.159C211.244 357.083 211.087 357.884 210.773 358.562C210.458 359.237 210.023 359.759 209.466 360.131C208.909 360.498 208.267 360.682 207.54 360.682C206.979 360.682 206.53 360.589 206.193 360.403C205.856 360.214 205.597 360 205.415 359.761C205.233 359.519 205.093 359.318 204.994 359.159H204.881V363.773H203.54ZM204.858 356.136C204.858 356.795 204.955 357.377 205.148 357.881C205.341 358.381 205.623 358.773 205.994 359.057C206.366 359.337 206.82 359.477 207.358 359.477C207.919 359.477 208.386 359.33 208.761 359.034C209.14 358.735 209.424 358.333 209.614 357.83C209.807 357.322 209.903 356.758 209.903 356.136C209.903 355.523 209.809 354.97 209.619 354.477C209.434 353.981 209.152 353.589 208.773 353.301C208.398 353.009 207.926 352.864 207.358 352.864C206.813 352.864 206.354 353.002 205.983 353.278C205.612 353.551 205.331 353.934 205.142 354.426C204.953 354.915 204.858 355.485 204.858 356.136ZM215.858 360.705C215.305 360.705 214.803 360.6 214.352 360.392C213.902 360.18 213.544 359.875 213.278 359.477C213.013 359.076 212.881 358.591 212.881 358.023C212.881 357.523 212.979 357.117 213.176 356.807C213.373 356.492 213.636 356.246 213.966 356.068C214.295 355.89 214.659 355.758 215.057 355.67C215.458 355.58 215.862 355.508 216.267 355.455C216.797 355.386 217.227 355.335 217.557 355.301C217.89 355.263 218.133 355.201 218.284 355.114C218.439 355.027 218.517 354.875 218.517 354.659V354.614C218.517 354.053 218.364 353.617 218.057 353.307C217.754 352.996 217.294 352.841 216.676 352.841C216.036 352.841 215.534 352.981 215.17 353.261C214.807 353.542 214.551 353.841 214.403 354.159L213.131 353.705C213.358 353.174 213.661 352.761 214.04 352.466C214.422 352.167 214.839 351.958 215.29 351.841C215.744 351.72 216.191 351.659 216.631 351.659C216.911 351.659 217.233 351.693 217.597 351.761C217.964 351.826 218.318 351.96 218.659 352.165C219.004 352.369 219.29 352.678 219.517 353.091C219.744 353.504 219.858 354.057 219.858 354.75V360.5H218.517V359.318H218.449C218.358 359.508 218.206 359.71 217.994 359.926C217.782 360.142 217.5 360.326 217.148 360.477C216.795 360.629 216.366 360.705 215.858 360.705ZM216.062 359.5C216.593 359.5 217.04 359.396 217.403 359.188C217.771 358.979 218.047 358.71 218.233 358.381C218.422 358.051 218.517 357.705 218.517 357.341V356.114C218.46 356.182 218.335 356.244 218.142 356.301C217.953 356.354 217.733 356.402 217.483 356.443C217.237 356.481 216.996 356.515 216.761 356.545C216.53 356.572 216.343 356.595 216.199 356.614C215.85 356.659 215.525 356.733 215.222 356.835C214.922 356.934 214.68 357.083 214.494 357.284C214.313 357.481 214.222 357.75 214.222 358.091C214.222 358.557 214.394 358.909 214.739 359.148C215.087 359.383 215.528 359.5 216.062 359.5ZM227.078 358.682L230.124 351.773H231.396L227.624 360.5H226.533L222.828 351.773H224.078L227.078 358.682ZM223.646 351.773V360.5H222.305V351.773H223.646ZM230.51 360.5V351.773H231.851V360.5H230.51ZM235.646 358.523L239.851 351.773H241.396V360.5H240.055V353.75L235.874 360.5H234.305V351.773H235.646V358.523Z" fill="black"/>
<rect x="0.5" y="390" width="275" height="60" rx="8" fill="#F9FAFB"/>
<path d="M42.0227 425.659V424.341H42.75C43.0303 424.341 43.2652 424.286 43.4545 424.176C43.6477 424.066 43.8068 423.924 43.9318 423.75C44.0606 423.576 44.1667 423.394 44.25 423.205L44.4318 422.773L40.4091 413.864H41.9318L45.1364 421.091L48.0682 413.864H49.5682L45.5455 423.614C45.3864 423.977 45.2045 424.314 45 424.625C44.7992 424.936 44.5246 425.186 44.1761 425.375C43.8314 425.564 43.3636 425.659 42.7727 425.659H42.0227ZM50.571 425.5V416.773H57.4347V425.5H56.0938V418.023H51.9119V425.5H50.571ZM59.8835 428.773V416.773H61.179V418.159H61.3381C61.4366 418.008 61.5729 417.814 61.7472 417.58C61.9252 417.341 62.179 417.129 62.5085 416.943C62.8419 416.754 63.2926 416.659 63.8608 416.659C64.5956 416.659 65.2434 416.843 65.804 417.21C66.3646 417.578 66.8021 418.098 67.1165 418.773C67.4309 419.447 67.5881 420.242 67.5881 421.159C67.5881 422.083 67.4309 422.884 67.1165 423.562C66.8021 424.237 66.3665 424.759 65.8097 425.131C65.2528 425.498 64.6108 425.682 63.8835 425.682C63.3229 425.682 62.8741 425.589 62.5369 425.403C62.1998 425.214 61.9403 425 61.7585 424.761C61.5767 424.519 61.4366 424.318 61.3381 424.159H61.2244V428.773H59.8835ZM61.2017 421.136C61.2017 421.795 61.2983 422.377 61.4915 422.881C61.6847 423.381 61.9669 423.773 62.3381 424.057C62.7093 424.337 63.1638 424.477 63.7017 424.477C64.2623 424.477 64.7301 424.33 65.1051 424.034C65.4839 423.735 65.768 423.333 65.9574 422.83C66.1506 422.322 66.2472 421.758 66.2472 421.136C66.2472 420.523 66.1525 419.97 65.9631 419.477C65.7775 418.981 65.4953 418.589 65.1165 418.301C64.7415 418.009 64.2699 417.864 63.7017 417.864C63.1563 417.864 62.6979 418.002 62.3267 418.278C61.9555 418.551 61.6752 418.934 61.4858 419.426C61.2964 419.915 61.2017 420.485 61.2017 421.136ZM72.2017 425.705C71.6487 425.705 71.1468 425.6 70.696 425.392C70.2453 425.18 69.8873 424.875 69.6222 424.477C69.357 424.076 69.2244 423.591 69.2244 423.023C69.2244 422.523 69.3229 422.117 69.5199 421.807C69.7169 421.492 69.9801 421.246 70.3097 421.068C70.6392 420.89 71.0028 420.758 71.4006 420.67C71.8021 420.58 72.2055 420.508 72.6108 420.455C73.1411 420.386 73.571 420.335 73.9006 420.301C74.2339 420.263 74.4763 420.201 74.6278 420.114C74.7831 420.027 74.8608 419.875 74.8608 419.659V419.614C74.8608 419.053 74.7074 418.617 74.4006 418.307C74.0975 417.996 73.6373 417.841 73.0199 417.841C72.3797 417.841 71.8778 417.981 71.5142 418.261C71.1506 418.542 70.8949 418.841 70.7472 419.159L69.4744 418.705C69.7017 418.174 70.0047 417.761 70.3835 417.466C70.7661 417.167 71.1828 416.958 71.6335 416.841C72.0881 416.72 72.535 416.659 72.9744 416.659C73.2547 416.659 73.5767 416.693 73.9403 416.761C74.3078 416.826 74.6619 416.96 75.0028 417.165C75.3475 417.369 75.6335 417.678 75.8608 418.091C76.0881 418.504 76.2017 419.057 76.2017 419.75V425.5H74.8608V424.318H74.7926C74.7017 424.508 74.5502 424.71 74.3381 424.926C74.1259 425.142 73.8438 425.326 73.4915 425.477C73.1392 425.629 72.7093 425.705 72.2017 425.705ZM72.4062 424.5C72.9366 424.5 73.3835 424.396 73.7472 424.188C74.1146 423.979 74.3911 423.71 74.5767 423.381C74.7661 423.051 74.8608 422.705 74.8608 422.341V421.114C74.804 421.182 74.679 421.244 74.4858 421.301C74.2964 421.354 74.0767 421.402 73.8267 421.443C73.5805 421.481 73.34 421.515 73.1051 421.545C72.8741 421.572 72.6866 421.595 72.5426 421.614C72.1941 421.659 71.8684 421.733 71.5653 421.835C71.2661 421.934 71.0237 422.083 70.8381 422.284C70.6563 422.481 70.5653 422.75 70.5653 423.091C70.5653 423.557 70.7377 423.909 71.0824 424.148C71.4309 424.383 71.8722 424.5 72.4062 424.5ZM78.6491 425.5V416.773H82.2173C83.1567 416.773 83.9029 416.985 84.456 417.409C85.009 417.833 85.2855 418.394 85.2855 419.091C85.2855 419.621 85.1283 420.032 84.8139 420.324C84.4995 420.612 84.0961 420.807 83.6037 420.909C83.9257 420.955 84.2382 421.068 84.5412 421.25C84.848 421.432 85.1018 421.682 85.3026 422C85.5033 422.314 85.6037 422.701 85.6037 423.159C85.6037 423.606 85.4901 424.006 85.2628 424.358C85.0355 424.71 84.7098 424.989 84.2855 425.193C83.8613 425.398 83.3537 425.5 82.7628 425.5H78.6491ZM79.9219 424.273H82.7628C83.2249 424.273 83.5866 424.163 83.848 423.943C84.1094 423.723 84.2401 423.424 84.2401 423.045C84.2401 422.595 84.1094 422.241 83.848 421.983C83.5866 421.722 83.2249 421.591 82.7628 421.591H79.9219V424.273ZM79.9219 420.432H82.2173C82.5772 420.432 82.8859 420.383 83.1435 420.284C83.401 420.182 83.598 420.038 83.7344 419.852C83.8745 419.663 83.9446 419.439 83.9446 419.182C83.9446 418.814 83.7912 418.527 83.4844 418.318C83.1776 418.106 82.7552 418 82.2173 418H79.9219V420.432ZM86.8608 425.5V424.25H87.179C87.4403 424.25 87.6581 424.199 87.8324 424.097C88.0066 423.991 88.1468 423.807 88.2528 423.545C88.3627 423.28 88.446 422.913 88.5028 422.443C88.5634 421.97 88.607 421.367 88.6335 420.636L88.7926 416.773H94.6108V425.5H93.2699V418.023H90.0653L89.929 421.136C89.8987 421.852 89.8343 422.483 89.7358 423.028C89.6411 423.57 89.4953 424.025 89.2983 424.392C89.1051 424.759 88.8475 425.036 88.5256 425.222C88.2036 425.407 87.8002 425.5 87.3153 425.5H86.8608ZM100.73 425.682C99.8892 425.682 99.1638 425.496 98.554 425.125C97.9479 424.75 97.4801 424.227 97.1506 423.557C96.8248 422.883 96.6619 422.098 96.6619 421.205C96.6619 420.311 96.8248 419.523 97.1506 418.841C97.4801 418.155 97.9384 417.621 98.5256 417.239C99.1165 416.852 99.8059 416.659 100.594 416.659C101.048 416.659 101.497 416.735 101.94 416.886C102.384 417.038 102.787 417.284 103.151 417.625C103.514 417.962 103.804 418.409 104.02 418.966C104.236 419.523 104.344 420.208 104.344 421.023V421.591H97.6165V420.432H102.98C102.98 419.939 102.882 419.5 102.685 419.114C102.491 418.727 102.215 418.422 101.855 418.199C101.499 417.975 101.079 417.864 100.594 417.864C100.06 417.864 99.5975 417.996 99.2074 418.261C98.821 418.523 98.5237 418.864 98.3153 419.284C98.107 419.705 98.0028 420.155 98.0028 420.636V421.409C98.0028 422.068 98.1165 422.627 98.3438 423.085C98.5748 423.54 98.8949 423.886 99.304 424.125C99.7131 424.36 100.188 424.477 100.73 424.477C101.082 424.477 101.401 424.428 101.685 424.33C101.973 424.227 102.221 424.076 102.429 423.875C102.637 423.67 102.798 423.417 102.912 423.114L104.207 423.477C104.071 423.917 103.842 424.303 103.52 424.636C103.198 424.966 102.8 425.223 102.327 425.409C101.853 425.591 101.321 425.682 100.73 425.682ZM112.224 420.523V421.773H107.406V420.523H112.224ZM107.724 416.773V425.5H106.384V416.773H107.724ZM113.247 416.773V425.5H111.906V416.773H113.247ZM117.037 423.523L121.241 416.773H122.787V425.5H121.446V418.75L117.264 425.5H115.696V416.773H117.037V423.523ZM128.902 425.682C128.061 425.682 127.336 425.496 126.726 425.125C126.12 424.75 125.652 424.227 125.322 423.557C124.997 422.883 124.834 422.098 124.834 421.205C124.834 420.311 124.997 419.523 125.322 418.841C125.652 418.155 126.11 417.621 126.697 417.239C127.288 416.852 127.978 416.659 128.766 416.659C129.22 416.659 129.669 416.735 130.112 416.886C130.555 417.038 130.959 417.284 131.322 417.625C131.686 417.962 131.976 418.409 132.192 418.966C132.408 419.523 132.516 420.208 132.516 421.023V421.591H125.788V420.432H131.152C131.152 419.939 131.054 419.5 130.857 419.114C130.663 418.727 130.387 418.422 130.027 418.199C129.671 417.975 129.25 417.864 128.766 417.864C128.232 417.864 127.769 417.996 127.379 418.261C126.993 418.523 126.696 418.864 126.487 419.284C126.279 419.705 126.175 420.155 126.175 420.636V421.409C126.175 422.068 126.288 422.627 126.516 423.085C126.747 423.54 127.067 423.886 127.476 424.125C127.885 424.36 128.36 424.477 128.902 424.477C129.254 424.477 129.572 424.428 129.857 424.33C130.144 424.227 130.393 424.076 130.601 423.875C130.809 423.67 130.97 423.417 131.084 423.114L132.379 423.477C132.243 423.917 132.014 424.303 131.692 424.636C131.37 424.966 130.972 425.223 130.499 425.409C130.025 425.591 129.493 425.682 128.902 425.682ZM139.055 425.5V416.773H145.919V425.5H144.578V418.023H140.396V425.5H139.055ZM148.368 428.773V416.773H149.663V418.159H149.822C149.921 418.008 150.057 417.814 150.232 417.58C150.41 417.341 150.663 417.129 150.993 416.943C151.326 416.754 151.777 416.659 152.345 416.659C153.08 416.659 153.728 416.843 154.288 417.21C154.849 417.578 155.286 418.098 155.601 418.773C155.915 419.447 156.072 420.242 156.072 421.159C156.072 422.083 155.915 422.884 155.601 423.562C155.286 424.237 154.851 424.759 154.294 425.131C153.737 425.498 153.095 425.682 152.368 425.682C151.807 425.682 151.358 425.589 151.021 425.403C150.684 425.214 150.425 425 150.243 424.761C150.061 424.519 149.921 424.318 149.822 424.159H149.709V428.773H148.368ZM149.686 421.136C149.686 421.795 149.783 422.377 149.976 422.881C150.169 423.381 150.451 423.773 150.822 424.057C151.194 424.337 151.648 424.477 152.186 424.477C152.747 424.477 153.214 424.33 153.589 424.034C153.968 423.735 154.252 423.333 154.442 422.83C154.635 422.322 154.732 421.758 154.732 421.136C154.732 420.523 154.637 419.97 154.447 419.477C154.262 418.981 153.98 418.589 153.601 418.301C153.226 418.009 152.754 417.864 152.186 417.864C151.641 417.864 151.182 418.002 150.811 418.278C150.44 418.551 150.16 418.934 149.97 419.426C149.781 419.915 149.686 420.485 149.686 421.136ZM161.663 425.682C160.875 425.682 160.184 425.494 159.589 425.119C158.999 424.744 158.536 424.22 158.203 423.545C157.874 422.871 157.709 422.083 157.709 421.182C157.709 420.273 157.874 419.479 158.203 418.801C158.536 418.123 158.999 417.597 159.589 417.222C160.184 416.847 160.875 416.659 161.663 416.659C162.451 416.659 163.141 416.847 163.732 417.222C164.326 417.597 164.788 418.123 165.118 418.801C165.451 419.479 165.618 420.273 165.618 421.182C165.618 422.083 165.451 422.871 165.118 423.545C164.788 424.22 164.326 424.744 163.732 425.119C163.141 425.494 162.451 425.682 161.663 425.682ZM161.663 424.477C162.262 424.477 162.754 424.324 163.141 424.017C163.527 423.71 163.813 423.307 163.999 422.807C164.184 422.307 164.277 421.765 164.277 421.182C164.277 420.598 164.184 420.055 163.999 419.551C163.813 419.047 163.527 418.64 163.141 418.33C162.754 418.019 162.262 417.864 161.663 417.864C161.065 417.864 160.572 418.019 160.186 418.33C159.8 418.64 159.514 419.047 159.328 419.551C159.143 420.055 159.05 420.598 159.05 421.182C159.05 421.765 159.143 422.307 159.328 422.807C159.514 423.307 159.8 423.71 160.186 424.017C160.572 424.324 161.065 424.477 161.663 424.477ZM166.733 428V424.25H167.46C167.638 424.064 167.792 423.864 167.92 423.648C168.049 423.432 168.161 423.176 168.256 422.881C168.354 422.581 168.438 422.218 168.506 421.79C168.574 421.358 168.634 420.837 168.688 420.227L168.983 416.773H174.528V424.25H175.869V428H174.528V425.5H168.074V428H166.733ZM168.983 424.25H173.188V418.023H170.233L170.006 420.227C169.911 421.14 169.794 421.937 169.653 422.619C169.513 423.301 169.29 423.845 168.983 424.25ZM180.217 425.705C179.664 425.705 179.162 425.6 178.712 425.392C178.261 425.18 177.903 424.875 177.638 424.477C177.373 424.076 177.24 423.591 177.24 423.023C177.24 422.523 177.339 422.117 177.536 421.807C177.732 421.492 177.996 421.246 178.325 421.068C178.655 420.89 179.018 420.758 179.416 420.67C179.818 420.58 180.221 420.508 180.626 420.455C181.157 420.386 181.587 420.335 181.916 420.301C182.25 420.263 182.492 420.201 182.643 420.114C182.799 420.027 182.876 419.875 182.876 419.659V419.614C182.876 419.053 182.723 418.617 182.416 418.307C182.113 417.996 181.653 417.841 181.036 417.841C180.395 417.841 179.893 417.981 179.53 418.261C179.166 418.542 178.911 418.841 178.763 419.159L177.49 418.705C177.717 418.174 178.02 417.761 178.399 417.466C178.782 417.167 179.198 416.958 179.649 416.841C180.104 416.72 180.551 416.659 180.99 416.659C181.27 416.659 181.592 416.693 181.956 416.761C182.323 416.826 182.678 416.96 183.018 417.165C183.363 417.369 183.649 417.678 183.876 418.091C184.104 418.504 184.217 419.057 184.217 419.75V425.5H182.876V424.318H182.808C182.717 424.508 182.566 424.71 182.354 424.926C182.142 425.142 181.859 425.326 181.507 425.477C181.155 425.629 180.725 425.705 180.217 425.705ZM180.422 424.5C180.952 424.5 181.399 424.396 181.763 424.188C182.13 423.979 182.407 423.71 182.592 423.381C182.782 423.051 182.876 422.705 182.876 422.341V421.114C182.82 421.182 182.695 421.244 182.501 421.301C182.312 421.354 182.092 421.402 181.842 421.443C181.596 421.481 181.356 421.515 181.121 421.545C180.89 421.572 180.702 421.595 180.558 421.614C180.21 421.659 179.884 421.733 179.581 421.835C179.282 421.934 179.039 422.083 178.854 422.284C178.672 422.481 178.581 422.75 178.581 423.091C178.581 423.557 178.753 423.909 179.098 424.148C179.446 424.383 179.888 424.5 180.422 424.5ZM186.665 425.5V416.773H190.233C191.172 416.773 191.919 416.985 192.472 417.409C193.025 417.833 193.301 418.394 193.301 419.091C193.301 419.621 193.144 420.032 192.83 420.324C192.515 420.612 192.112 420.807 191.619 420.909C191.941 420.955 192.254 421.068 192.557 421.25C192.864 421.432 193.117 421.682 193.318 422C193.519 422.314 193.619 422.701 193.619 423.159C193.619 423.606 193.506 424.006 193.278 424.358C193.051 424.71 192.725 424.989 192.301 425.193C191.877 425.398 191.369 425.5 190.778 425.5H186.665ZM187.938 424.273H190.778C191.241 424.273 191.602 424.163 191.864 423.943C192.125 423.723 192.256 423.424 192.256 423.045C192.256 422.595 192.125 422.241 191.864 421.983C191.602 421.722 191.241 421.591 190.778 421.591H187.938V424.273ZM187.938 420.432H190.233C190.593 420.432 190.902 420.383 191.159 420.284C191.417 420.182 191.614 420.038 191.75 419.852C191.89 419.663 191.96 419.439 191.96 419.182C191.96 418.814 191.807 418.527 191.5 418.318C191.193 418.106 190.771 418 190.233 418H187.938V420.432ZM202.513 416.773V424.25H203.74V428.318H202.399V425.5H195.649V416.773H196.99V424.25H201.172V416.773H202.513ZM208.374 425.705C207.821 425.705 207.319 425.6 206.868 425.392C206.417 425.18 206.059 424.875 205.794 424.477C205.529 424.076 205.396 423.591 205.396 423.023C205.396 422.523 205.495 422.117 205.692 421.807C205.889 421.492 206.152 421.246 206.482 421.068C206.811 420.89 207.175 420.758 207.572 420.67C207.974 420.58 208.377 420.508 208.783 420.455C209.313 420.386 209.743 420.335 210.072 420.301C210.406 420.263 210.648 420.201 210.8 420.114C210.955 420.027 211.033 419.875 211.033 419.659V419.614C211.033 419.053 210.879 418.617 210.572 418.307C210.269 417.996 209.809 417.841 209.192 417.841C208.552 417.841 208.05 417.981 207.686 418.261C207.322 418.542 207.067 418.841 206.919 419.159L205.646 418.705C205.874 418.174 206.177 417.761 206.555 417.466C206.938 417.167 207.355 416.958 207.805 416.841C208.26 416.72 208.707 416.659 209.146 416.659C209.427 416.659 209.749 416.693 210.112 416.761C210.48 416.826 210.834 416.96 211.175 417.165C211.519 417.369 211.805 417.678 212.033 418.091C212.26 418.504 212.374 419.057 212.374 419.75V425.5H211.033V424.318H210.964C210.874 424.508 210.722 424.71 210.51 424.926C210.298 425.142 210.016 425.326 209.663 425.477C209.311 425.629 208.881 425.705 208.374 425.705ZM208.578 424.5C209.108 424.5 209.555 424.396 209.919 424.188C210.286 423.979 210.563 423.71 210.749 423.381C210.938 423.051 211.033 422.705 211.033 422.341V421.114C210.976 421.182 210.851 421.244 210.658 421.301C210.468 421.354 210.249 421.402 209.999 421.443C209.752 421.481 209.512 421.515 209.277 421.545C209.046 421.572 208.858 421.595 208.714 421.614C208.366 421.659 208.04 421.733 207.737 421.835C207.438 421.934 207.196 422.083 207.01 422.284C206.828 422.481 206.737 422.75 206.737 423.091C206.737 423.557 206.91 423.909 207.254 424.148C207.603 424.383 208.044 424.5 208.578 424.5ZM219.594 423.682L222.639 416.773H223.912L220.139 425.5H219.048L215.344 416.773H216.594L219.594 423.682ZM216.162 416.773V425.5H214.821V416.773H216.162ZM223.026 425.5V416.773H224.366V425.5H223.026ZM228.162 423.523L232.366 416.773H233.912V425.5H232.571V418.75L228.389 425.5H226.821V416.773H228.162V423.523Z" fill="black"/>
</svg>
