<?xml version="1.0" standalone="no"?><svg xmlns="http://www.w3.org/2000/svg" viewBox="0 0 1440 320"><path fill="#009f70" fill-opacity="1" d="M0,288L40,277.3C80,267,160,245,240,224C320,203,400,181,480,165.3C560,149,640,139,720,149.3C800,160,880,192,960,192C1040,192,1120,160,1200,122.7C1280,85,1360,43,1400,21.3L1440,0L1440,320L1400,320C1360,320,1280,320,1200,320C1120,320,1040,320,960,320C880,320,800,320,720,320C640,320,560,320,480,320C400,320,320,320,240,320C160,320,80,320,40,320L0,320Z"></path></svg>